<mxfile host="app.diagrams.net" agent="Mozilla/5.0 (Macintosh; Intel Mac OS X 10_15_7) AppleWebKit/537.36 (KHTML, like Gecko) Chrome/141.0.0.0 Safari/537.36" version="28.2.7">
  <diagram name="Página-1" id="zYaLqh4plHQ7Nt4-AeD2">
    <mxGraphModel dx="1291" dy="1185" grid="1" gridSize="10" guides="1" tooltips="1" connect="1" arrows="1" fold="1" page="1" pageScale="1" pageWidth="850" pageHeight="1100" math="0" shadow="0">
      <root>
        <mxCell id="0" />
        <mxCell id="1" parent="0" />
        <mxCell id="eUfT9PUffSEm3wiL0WkW-12" value="" style="edgeStyle=orthogonalEdgeStyle;rounded=0;orthogonalLoop=1;jettySize=auto;html=1;" edge="1" parent="1" source="eUfT9PUffSEm3wiL0WkW-13" target="eUfT9PUffSEm3wiL0WkW-15">
          <mxGeometry relative="1" as="geometry" />
        </mxCell>
        <mxCell id="eUfT9PUffSEm3wiL0WkW-13" value="Início" style="rounded=1;whiteSpace=wrap;html=1;" vertex="1" parent="1">
          <mxGeometry x="120" y="80" width="80" height="40" as="geometry" />
        </mxCell>
        <mxCell id="eUfT9PUffSEm3wiL0WkW-14" value="" style="edgeStyle=orthogonalEdgeStyle;rounded=0;orthogonalLoop=1;jettySize=auto;html=1;" edge="1" parent="1" source="eUfT9PUffSEm3wiL0WkW-15" target="eUfT9PUffSEm3wiL0WkW-17">
          <mxGeometry relative="1" as="geometry" />
        </mxCell>
        <mxCell id="eUfT9PUffSEm3wiL0WkW-15" value="Setup" style="rounded=0;whiteSpace=wrap;html=1;" vertex="1" parent="1">
          <mxGeometry x="100" y="160" width="120" height="60" as="geometry" />
        </mxCell>
        <mxCell id="eUfT9PUffSEm3wiL0WkW-16" value="" style="edgeStyle=orthogonalEdgeStyle;rounded=0;orthogonalLoop=1;jettySize=auto;html=1;" edge="1" parent="1" source="eUfT9PUffSEm3wiL0WkW-17" target="eUfT9PUffSEm3wiL0WkW-35">
          <mxGeometry relative="1" as="geometry" />
        </mxCell>
        <mxCell id="eUfT9PUffSEm3wiL0WkW-17" value="Loop" style="rounded=0;whiteSpace=wrap;html=1;" vertex="1" parent="1">
          <mxGeometry x="100" y="280" width="120" height="60" as="geometry" />
        </mxCell>
        <mxCell id="eUfT9PUffSEm3wiL0WkW-18" value="" style="edgeStyle=orthogonalEdgeStyle;rounded=0;orthogonalLoop=1;jettySize=auto;html=1;" edge="1" parent="1" source="eUfT9PUffSEm3wiL0WkW-19" target="eUfT9PUffSEm3wiL0WkW-21">
          <mxGeometry relative="1" as="geometry" />
        </mxCell>
        <mxCell id="eUfT9PUffSEm3wiL0WkW-19" value="Início Setup" style="rounded=1;whiteSpace=wrap;html=1;" vertex="1" parent="1">
          <mxGeometry x="360" y="80" width="80" height="40" as="geometry" />
        </mxCell>
        <mxCell id="eUfT9PUffSEm3wiL0WkW-20" value="" style="edgeStyle=orthogonalEdgeStyle;rounded=0;orthogonalLoop=1;jettySize=auto;html=1;" edge="1" parent="1" source="eUfT9PUffSEm3wiL0WkW-21" target="eUfT9PUffSEm3wiL0WkW-27">
          <mxGeometry relative="1" as="geometry" />
        </mxCell>
        <mxCell id="eUfT9PUffSEm3wiL0WkW-21" value="Definir pinos de input e output" style="rounded=0;whiteSpace=wrap;html=1;" vertex="1" parent="1">
          <mxGeometry x="340" y="160" width="120" height="60" as="geometry" />
        </mxCell>
        <mxCell id="eUfT9PUffSEm3wiL0WkW-22" value="" style="edgeStyle=orthogonalEdgeStyle;rounded=0;orthogonalLoop=1;jettySize=auto;html=1;" edge="1" parent="1" source="eUfT9PUffSEm3wiL0WkW-23" target="eUfT9PUffSEm3wiL0WkW-25">
          <mxGeometry relative="1" as="geometry" />
        </mxCell>
        <mxCell id="eUfT9PUffSEm3wiL0WkW-23" value="Definir caminho do microcontrolador" style="rounded=0;whiteSpace=wrap;html=1;" vertex="1" parent="1">
          <mxGeometry x="340" y="320" width="120" height="60" as="geometry" />
        </mxCell>
        <mxCell id="eUfT9PUffSEm3wiL0WkW-24" value="" style="edgeStyle=orthogonalEdgeStyle;rounded=0;orthogonalLoop=1;jettySize=auto;html=1;" edge="1" parent="1" source="eUfT9PUffSEm3wiL0WkW-25" target="eUfT9PUffSEm3wiL0WkW-28">
          <mxGeometry relative="1" as="geometry" />
        </mxCell>
        <mxCell id="eUfT9PUffSEm3wiL0WkW-25" value="Definir constantes (número de obstáculos, tempo de espera)" style="rounded=0;whiteSpace=wrap;html=1;" vertex="1" parent="1">
          <mxGeometry x="340" y="400" width="120" height="60" as="geometry" />
        </mxCell>
        <mxCell id="eUfT9PUffSEm3wiL0WkW-26" value="" style="edgeStyle=orthogonalEdgeStyle;rounded=0;orthogonalLoop=1;jettySize=auto;html=1;" edge="1" parent="1" source="eUfT9PUffSEm3wiL0WkW-27">
          <mxGeometry relative="1" as="geometry">
            <mxPoint x="400" y="320" as="targetPoint" />
          </mxGeometry>
        </mxCell>
        <mxCell id="eUfT9PUffSEm3wiL0WkW-27" value="Definir interrupções" style="rounded=0;whiteSpace=wrap;html=1;" vertex="1" parent="1">
          <mxGeometry x="340" y="240" width="120" height="60" as="geometry" />
        </mxCell>
        <mxCell id="eUfT9PUffSEm3wiL0WkW-28" value="Fim Setup" style="rounded=1;whiteSpace=wrap;html=1;" vertex="1" parent="1">
          <mxGeometry x="360" y="480" width="80" height="40" as="geometry" />
        </mxCell>
        <mxCell id="eUfT9PUffSEm3wiL0WkW-29" value="" style="edgeStyle=orthogonalEdgeStyle;rounded=0;orthogonalLoop=1;jettySize=auto;html=1;" edge="1" parent="1" source="eUfT9PUffSEm3wiL0WkW-30" target="eUfT9PUffSEm3wiL0WkW-33">
          <mxGeometry relative="1" as="geometry" />
        </mxCell>
        <mxCell id="eUfT9PUffSEm3wiL0WkW-30" value="Início Loop" style="rounded=1;whiteSpace=wrap;html=1;" vertex="1" parent="1">
          <mxGeometry x="800" y="80" width="80" height="40" as="geometry" />
        </mxCell>
        <mxCell id="eUfT9PUffSEm3wiL0WkW-31" value="" style="edgeStyle=orthogonalEdgeStyle;rounded=0;orthogonalLoop=1;jettySize=auto;html=1;" edge="1" parent="1" source="eUfT9PUffSEm3wiL0WkW-33" target="eUfT9PUffSEm3wiL0WkW-46">
          <mxGeometry relative="1" as="geometry" />
        </mxCell>
        <mxCell id="eUfT9PUffSEm3wiL0WkW-32" value="1" style="edgeLabel;html=1;align=center;verticalAlign=middle;resizable=0;points=[];" vertex="1" connectable="0" parent="eUfT9PUffSEm3wiL0WkW-31">
          <mxGeometry x="-0.4143" relative="1" as="geometry">
            <mxPoint x="-35" y="-20" as="offset" />
          </mxGeometry>
        </mxCell>
        <mxCell id="eUfT9PUffSEm3wiL0WkW-33" value="Valor do estado" style="rhombus;whiteSpace=wrap;html=1;" vertex="1" parent="1">
          <mxGeometry x="780" y="160" width="120" height="80" as="geometry" />
        </mxCell>
        <mxCell id="eUfT9PUffSEm3wiL0WkW-34" value="" style="edgeStyle=orthogonalEdgeStyle;rounded=0;orthogonalLoop=1;jettySize=auto;html=1;" edge="1" parent="1" source="eUfT9PUffSEm3wiL0WkW-35" target="eUfT9PUffSEm3wiL0WkW-38">
          <mxGeometry relative="1" as="geometry" />
        </mxCell>
        <mxCell id="eUfT9PUffSEm3wiL0WkW-35" value="Interrupção?" style="rhombus;whiteSpace=wrap;html=1;" vertex="1" parent="1">
          <mxGeometry x="100" y="360" width="120" height="80" as="geometry" />
        </mxCell>
        <mxCell id="eUfT9PUffSEm3wiL0WkW-36" value="" style="endArrow=classic;html=1;rounded=0;exitX=0;exitY=0.5;exitDx=0;exitDy=0;" edge="1" parent="1" source="eUfT9PUffSEm3wiL0WkW-35">
          <mxGeometry width="50" height="50" relative="1" as="geometry">
            <mxPoint x="190" y="420" as="sourcePoint" />
            <mxPoint x="160" y="250" as="targetPoint" />
            <Array as="points">
              <mxPoint x="80" y="400" />
              <mxPoint x="80" y="250" />
            </Array>
          </mxGeometry>
        </mxCell>
        <mxCell id="eUfT9PUffSEm3wiL0WkW-37" value="Não" style="edgeLabel;html=1;align=center;verticalAlign=middle;resizable=0;points=[];" vertex="1" connectable="0" parent="eUfT9PUffSEm3wiL0WkW-36">
          <mxGeometry x="-0.7198" relative="1" as="geometry">
            <mxPoint as="offset" />
          </mxGeometry>
        </mxCell>
        <mxCell id="eUfT9PUffSEm3wiL0WkW-38" value="Fim" style="rounded=1;whiteSpace=wrap;html=1;" vertex="1" parent="1">
          <mxGeometry x="120" y="480" width="80" height="40" as="geometry" />
        </mxCell>
        <mxCell id="eUfT9PUffSEm3wiL0WkW-39" value="" style="edgeStyle=orthogonalEdgeStyle;rounded=0;orthogonalLoop=1;jettySize=auto;html=1;" edge="1" parent="1" source="eUfT9PUffSEm3wiL0WkW-40" target="eUfT9PUffSEm3wiL0WkW-56">
          <mxGeometry relative="1" as="geometry" />
        </mxCell>
        <mxCell id="eUfT9PUffSEm3wiL0WkW-40" value="Interrupção?" style="rhombus;whiteSpace=wrap;html=1;" vertex="1" parent="1">
          <mxGeometry x="780" y="460" width="120" height="80" as="geometry" />
        </mxCell>
        <mxCell id="eUfT9PUffSEm3wiL0WkW-41" value="Seguir Linha" style="rounded=0;whiteSpace=wrap;html=1;" vertex="1" parent="1">
          <mxGeometry x="570" y="280" width="120" height="60" as="geometry" />
        </mxCell>
        <mxCell id="eUfT9PUffSEm3wiL0WkW-42" value="" style="endArrow=classic;html=1;rounded=0;exitX=0;exitY=0.5;exitDx=0;exitDy=0;entryX=0.5;entryY=0;entryDx=0;entryDy=0;" edge="1" parent="1" source="eUfT9PUffSEm3wiL0WkW-33" target="eUfT9PUffSEm3wiL0WkW-41">
          <mxGeometry width="50" height="50" relative="1" as="geometry">
            <mxPoint x="780" y="340" as="sourcePoint" />
            <mxPoint x="830" y="290" as="targetPoint" />
            <Array as="points">
              <mxPoint x="630" y="200" />
            </Array>
          </mxGeometry>
        </mxCell>
        <mxCell id="eUfT9PUffSEm3wiL0WkW-43" value="0" style="edgeLabel;html=1;align=center;verticalAlign=middle;resizable=0;points=[];" vertex="1" connectable="0" parent="eUfT9PUffSEm3wiL0WkW-42">
          <mxGeometry x="-0.6341" y="4" relative="1" as="geometry">
            <mxPoint x="2" y="-14" as="offset" />
          </mxGeometry>
        </mxCell>
        <mxCell id="eUfT9PUffSEm3wiL0WkW-46" value="Curva esquerda" style="rounded=0;whiteSpace=wrap;html=1;" vertex="1" parent="1">
          <mxGeometry x="710" y="280" width="120" height="60" as="geometry" />
        </mxCell>
        <mxCell id="eUfT9PUffSEm3wiL0WkW-47" value="Parar" style="rounded=0;whiteSpace=wrap;html=1;" vertex="1" parent="1">
          <mxGeometry x="990" y="280" width="120" height="60" as="geometry" />
        </mxCell>
        <mxCell id="eUfT9PUffSEm3wiL0WkW-48" value="" style="endArrow=classic;html=1;rounded=0;exitX=1;exitY=0.5;exitDx=0;exitDy=0;entryX=0.5;entryY=0;entryDx=0;entryDy=0;" edge="1" parent="1" source="eUfT9PUffSEm3wiL0WkW-33" target="eUfT9PUffSEm3wiL0WkW-47">
          <mxGeometry width="50" height="50" relative="1" as="geometry">
            <mxPoint x="780" y="340" as="sourcePoint" />
            <mxPoint x="830" y="290" as="targetPoint" />
            <Array as="points">
              <mxPoint x="1050" y="200" />
            </Array>
          </mxGeometry>
        </mxCell>
        <mxCell id="eUfT9PUffSEm3wiL0WkW-49" value="3" style="edgeLabel;html=1;align=center;verticalAlign=middle;resizable=0;points=[];" vertex="1" connectable="0" parent="eUfT9PUffSEm3wiL0WkW-48">
          <mxGeometry x="-0.7825" y="-1" relative="1" as="geometry">
            <mxPoint y="-11" as="offset" />
          </mxGeometry>
        </mxCell>
        <mxCell id="eUfT9PUffSEm3wiL0WkW-52" value="" style="endArrow=classic;html=1;rounded=0;exitX=0.5;exitY=1;exitDx=0;exitDy=0;entryX=0.5;entryY=0;entryDx=0;entryDy=0;" edge="1" parent="1" source="eUfT9PUffSEm3wiL0WkW-41" target="eUfT9PUffSEm3wiL0WkW-40">
          <mxGeometry width="50" height="50" relative="1" as="geometry">
            <mxPoint x="780" y="400" as="sourcePoint" />
            <mxPoint x="780" y="400" as="targetPoint" />
            <Array as="points">
              <mxPoint x="630" y="400" />
              <mxPoint x="840" y="400" />
            </Array>
          </mxGeometry>
        </mxCell>
        <mxCell id="eUfT9PUffSEm3wiL0WkW-54" value="" style="endArrow=classic;html=1;rounded=0;exitX=0.5;exitY=1;exitDx=0;exitDy=0;entryX=0.5;entryY=0;entryDx=0;entryDy=0;" edge="1" parent="1" source="eUfT9PUffSEm3wiL0WkW-47" target="eUfT9PUffSEm3wiL0WkW-40">
          <mxGeometry width="50" height="50" relative="1" as="geometry">
            <mxPoint x="780" y="400" as="sourcePoint" />
            <mxPoint x="900" y="400" as="targetPoint" />
            <Array as="points">
              <mxPoint x="1050" y="400" />
              <mxPoint x="840" y="400" />
            </Array>
          </mxGeometry>
        </mxCell>
        <mxCell id="eUfT9PUffSEm3wiL0WkW-56" value="Fim Loop" style="rounded=1;whiteSpace=wrap;html=1;" vertex="1" parent="1">
          <mxGeometry x="800" y="560" width="80" height="40" as="geometry" />
        </mxCell>
        <mxCell id="eUfT9PUffSEm3wiL0WkW-57" value="" style="endArrow=classic;html=1;rounded=0;exitX=0;exitY=0.5;exitDx=0;exitDy=0;" edge="1" parent="1" source="eUfT9PUffSEm3wiL0WkW-40">
          <mxGeometry width="50" height="50" relative="1" as="geometry">
            <mxPoint x="790" y="420" as="sourcePoint" />
            <mxPoint x="840" y="140" as="targetPoint" />
            <Array as="points">
              <mxPoint x="520" y="500" />
              <mxPoint x="520" y="140" />
            </Array>
          </mxGeometry>
        </mxCell>
        <mxCell id="eUfT9PUffSEm3wiL0WkW-58" value="" style="edgeStyle=orthogonalEdgeStyle;rounded=0;orthogonalLoop=1;jettySize=auto;html=1;" edge="1" parent="1" source="eUfT9PUffSEm3wiL0WkW-59">
          <mxGeometry relative="1" as="geometry">
            <mxPoint x="1280" y="160" as="targetPoint" />
          </mxGeometry>
        </mxCell>
        <mxCell id="eUfT9PUffSEm3wiL0WkW-59" value="Início Seguir Linha" style="rounded=1;whiteSpace=wrap;html=1;" vertex="1" parent="1">
          <mxGeometry x="1240" y="80" width="80" height="40" as="geometry" />
        </mxCell>
        <mxCell id="eUfT9PUffSEm3wiL0WkW-68" value="Ativar motores para frente" style="shape=document;whiteSpace=wrap;html=1;boundedLbl=1;" vertex="1" parent="1">
          <mxGeometry x="1220" y="400" width="120" height="60" as="geometry" />
        </mxCell>
        <mxCell id="eUfT9PUffSEm3wiL0WkW-69" value="" style="endArrow=classic;html=1;rounded=0;exitX=0;exitY=0.5;exitDx=0;exitDy=0;" edge="1" parent="1" source="eUfT9PUffSEm3wiL0WkW-68">
          <mxGeometry width="50" height="50" relative="1" as="geometry">
            <mxPoint x="1330" y="490" as="sourcePoint" />
            <mxPoint x="1280" y="140" as="targetPoint" />
            <Array as="points">
              <mxPoint x="1180" y="430" />
              <mxPoint x="1180" y="140" />
            </Array>
          </mxGeometry>
        </mxCell>
        <mxCell id="eUfT9PUffSEm3wiL0WkW-73" value="" style="edgeStyle=orthogonalEdgeStyle;rounded=0;orthogonalLoop=1;jettySize=auto;html=1;exitX=0.5;exitY=1;exitDx=0;exitDy=0;" edge="1" parent="1" source="eUfT9PUffSEm3wiL0WkW-89" target="eUfT9PUffSEm3wiL0WkW-68">
          <mxGeometry relative="1" as="geometry">
            <mxPoint x="1280" y="480" as="sourcePoint" />
          </mxGeometry>
        </mxCell>
        <mxCell id="eUfT9PUffSEm3wiL0WkW-80" value="Curva direita" style="rounded=0;whiteSpace=wrap;html=1;" vertex="1" parent="1">
          <mxGeometry x="850" y="280" width="120" height="60" as="geometry" />
        </mxCell>
        <mxCell id="eUfT9PUffSEm3wiL0WkW-81" value="" style="endArrow=classic;html=1;rounded=0;exitX=0.5;exitY=1;exitDx=0;exitDy=0;entryX=0.5;entryY=0;entryDx=0;entryDy=0;" edge="1" parent="1" source="eUfT9PUffSEm3wiL0WkW-33" target="eUfT9PUffSEm3wiL0WkW-80">
          <mxGeometry width="50" height="50" relative="1" as="geometry">
            <mxPoint x="870" y="430" as="sourcePoint" />
            <mxPoint x="920" y="380" as="targetPoint" />
            <Array as="points">
              <mxPoint x="840" y="260" />
              <mxPoint x="910" y="260" />
            </Array>
          </mxGeometry>
        </mxCell>
        <mxCell id="eUfT9PUffSEm3wiL0WkW-84" value="2" style="edgeLabel;html=1;align=center;verticalAlign=middle;resizable=0;points=[];" vertex="1" connectable="0" parent="eUfT9PUffSEm3wiL0WkW-81">
          <mxGeometry x="0.1391" relative="1" as="geometry">
            <mxPoint x="-3" y="-20" as="offset" />
          </mxGeometry>
        </mxCell>
        <mxCell id="eUfT9PUffSEm3wiL0WkW-82" value="" style="endArrow=classic;html=1;rounded=0;exitX=0.5;exitY=1;exitDx=0;exitDy=0;entryX=0.5;entryY=0;entryDx=0;entryDy=0;" edge="1" parent="1" source="eUfT9PUffSEm3wiL0WkW-46" target="eUfT9PUffSEm3wiL0WkW-40">
          <mxGeometry width="50" height="50" relative="1" as="geometry">
            <mxPoint x="820" y="430" as="sourcePoint" />
            <mxPoint x="870" y="380" as="targetPoint" />
            <Array as="points">
              <mxPoint x="770" y="400" />
              <mxPoint x="840" y="400" />
            </Array>
          </mxGeometry>
        </mxCell>
        <mxCell id="eUfT9PUffSEm3wiL0WkW-83" value="" style="endArrow=classic;html=1;rounded=0;exitX=0.5;exitY=1;exitDx=0;exitDy=0;entryX=0.5;entryY=0;entryDx=0;entryDy=0;" edge="1" parent="1" source="eUfT9PUffSEm3wiL0WkW-80" target="eUfT9PUffSEm3wiL0WkW-40">
          <mxGeometry width="50" height="50" relative="1" as="geometry">
            <mxPoint x="820" y="430" as="sourcePoint" />
            <mxPoint x="870" y="380" as="targetPoint" />
            <Array as="points">
              <mxPoint x="910" y="400" />
              <mxPoint x="840" y="400" />
            </Array>
          </mxGeometry>
        </mxCell>
        <mxCell id="eUfT9PUffSEm3wiL0WkW-88" value="" style="edgeStyle=orthogonalEdgeStyle;rounded=0;orthogonalLoop=1;jettySize=auto;html=1;" edge="1" parent="1" source="eUfT9PUffSEm3wiL0WkW-85" target="eUfT9PUffSEm3wiL0WkW-87">
          <mxGeometry relative="1" as="geometry" />
        </mxCell>
        <mxCell id="eUfT9PUffSEm3wiL0WkW-94" value="Sim" style="edgeLabel;html=1;align=center;verticalAlign=middle;resizable=0;points=[];" vertex="1" connectable="0" parent="eUfT9PUffSEm3wiL0WkW-88">
          <mxGeometry x="-0.5698" y="-1" relative="1" as="geometry">
            <mxPoint y="-11" as="offset" />
          </mxGeometry>
        </mxCell>
        <mxCell id="eUfT9PUffSEm3wiL0WkW-90" value="" style="edgeStyle=orthogonalEdgeStyle;rounded=0;orthogonalLoop=1;jettySize=auto;html=1;" edge="1" parent="1" source="eUfT9PUffSEm3wiL0WkW-85" target="eUfT9PUffSEm3wiL0WkW-89">
          <mxGeometry relative="1" as="geometry" />
        </mxCell>
        <mxCell id="eUfT9PUffSEm3wiL0WkW-95" value="Não" style="edgeLabel;html=1;align=center;verticalAlign=middle;resizable=0;points=[];" vertex="1" connectable="0" parent="eUfT9PUffSEm3wiL0WkW-90">
          <mxGeometry x="-0.6186" y="-1" relative="1" as="geometry">
            <mxPoint x="-19" y="13" as="offset" />
          </mxGeometry>
        </mxCell>
        <mxCell id="eUfT9PUffSEm3wiL0WkW-85" value="Sensor Seg.&lt;div&gt;Linha Direito&lt;/div&gt;&lt;div&gt;ativo?&lt;/div&gt;" style="rhombus;whiteSpace=wrap;html=1;" vertex="1" parent="1">
          <mxGeometry x="1220" y="160" width="120" height="80" as="geometry" />
        </mxCell>
        <mxCell id="eUfT9PUffSEm3wiL0WkW-87" value="Alinhar motores levemente à esquerda" style="shape=document;whiteSpace=wrap;html=1;boundedLbl=1;" vertex="1" parent="1">
          <mxGeometry x="1380" y="170" width="120" height="60" as="geometry" />
        </mxCell>
        <mxCell id="eUfT9PUffSEm3wiL0WkW-93" value="" style="edgeStyle=orthogonalEdgeStyle;rounded=0;orthogonalLoop=1;jettySize=auto;html=1;" edge="1" parent="1" source="eUfT9PUffSEm3wiL0WkW-89" target="eUfT9PUffSEm3wiL0WkW-92">
          <mxGeometry relative="1" as="geometry" />
        </mxCell>
        <mxCell id="eUfT9PUffSEm3wiL0WkW-89" value="Sensor Seg.&lt;div&gt;Linha Esquerdo ativo?&lt;/div&gt;" style="rhombus;whiteSpace=wrap;html=1;" vertex="1" parent="1">
          <mxGeometry x="1220" y="280" width="120" height="80" as="geometry" />
        </mxCell>
        <mxCell id="eUfT9PUffSEm3wiL0WkW-91" value="" style="endArrow=classic;html=1;rounded=0;exitX=1;exitY=0.5;exitDx=0;exitDy=0;" edge="1" parent="1" source="eUfT9PUffSEm3wiL0WkW-87">
          <mxGeometry width="50" height="50" relative="1" as="geometry">
            <mxPoint x="1310" y="400" as="sourcePoint" />
            <mxPoint x="1280" y="260" as="targetPoint" />
            <Array as="points">
              <mxPoint x="1520" y="200" />
              <mxPoint x="1520" y="260" />
            </Array>
          </mxGeometry>
        </mxCell>
        <mxCell id="eUfT9PUffSEm3wiL0WkW-92" value="Alinhar motores levemente à direita" style="shape=document;whiteSpace=wrap;html=1;boundedLbl=1;" vertex="1" parent="1">
          <mxGeometry x="1380" y="290" width="120" height="60" as="geometry" />
        </mxCell>
        <mxCell id="eUfT9PUffSEm3wiL0WkW-96" value="" style="endArrow=classic;html=1;rounded=0;exitX=1;exitY=0.5;exitDx=0;exitDy=0;entryX=1.029;entryY=0.484;entryDx=0;entryDy=0;entryPerimeter=0;" edge="1" parent="1" source="eUfT9PUffSEm3wiL0WkW-92" target="eUfT9PUffSEm3wiL0WkW-68">
          <mxGeometry width="50" height="50" relative="1" as="geometry">
            <mxPoint x="1420" y="370" as="sourcePoint" />
            <mxPoint x="1470" y="320" as="targetPoint" />
            <Array as="points">
              <mxPoint x="1520" y="320" />
              <mxPoint x="1520" y="430" />
            </Array>
          </mxGeometry>
        </mxCell>
      </root>
    </mxGraphModel>
  </diagram>
</mxfile>
